<?xml version="1.0" standalone="no"?>
<!DOCTYPE svg PUBLIC "-//W3C//DTD SVG 20010904//EN"
 "http://www.w3.org/TR/2001/REC-SVG-20010904/DTD/svg10.dtd">
<svg version="1.0" xmlns="http://www.w3.org/2000/svg"
 width="500.000000pt" height="450.000000pt" viewBox="0 0 490.000000 486.000000"
 preserveAspectRatio="xMidYMid meet">

<g transform="translate(0.000000,486.000000) scale(0.100000,-0.100000)"
fill="#d3d3d373" stroke="none" >
<path d="M1800 4613 c-30 -8 -60 -20 -67 -26 -6 -7 -27 -49 -45 -95 -26 -61
-43 -89 -69 -107 -57 -43 -149 -137 -189 -195 -78 -114 -152 -294 -179 -435
-7 -33 -14 -66 -17 -74 -3 -9 -28 9 -73 52 -115 108 -259 164 -401 154 -145
-9 -344 -94 -447 -190 -180 -169 -182 -406 -7 -767 68 -139 88 -168 163 -245
57 -58 61 -64 90 -170 17 -60 31 -118 31 -127 0 -9 -43 -77 -95 -150 -200
-281 -305 -551 -305 -782 0 -236 67 -480 210 -766 132 -264 200 -368 389 -597
l76 -92 72 0 72 -1 -51 51 -51 51 69 37 c96 51 236 143 320 212 72 59 224 214
224 229 0 5 46 23 103 40 233 72 512 186 906 368 l195 90 112 183 c78 128 121
189 141 199 77 41 146 84 190 120 54 45 77 50 94 19 23 -44 3 -84 -81 -161
-44 -39 -80 -75 -80 -79 0 -29 176 -38 311 -15 74 12 79 14 169 89 79 67 97
77 130 77 33 0 70 -19 70 -36 0 -21 -44 -75 -138 -168 -108 -108 -110 -110
-94 -133 12 -20 13 -33 5 -71 -6 -26 -9 -61 -6 -79 3 -21 -2 -45 -15 -70 -11
-21 -23 -58 -25 -82 -4 -28 -16 -56 -35 -80 -29 -36 -30 -36 -158 -53 -71 -10
-218 -21 -328 -24 l-199 -7 -186 -132 c-398 -281 -620 -426 -801 -524 l-95
-51 523 0 522 0 93 43 c50 24 110 55 133 69 l41 26 7 149 c3 81 9 192 13 245
l6 97 66 6 c113 10 270 34 327 51 44 12 61 24 84 55 27 38 58 134 47 146 -3 3
4 24 16 46 14 27 22 62 23 98 1 30 6 65 13 76 14 27 14 80 1 88 -6 3 39 60
100 126 94 102 110 125 110 153 0 69 -76 119 -146 96 -20 -7 -74 -46 -122 -87
-47 -41 -97 -79 -111 -85 -14 -5 -82 -12 -151 -15 l-125 -5 31 20 c54 34 104
109 104 154 0 50 -21 91 -55 106 -42 19 -65 14 -111 -23 -23 -19 -45 -35 -48
-35 -6 0 -9 90 -3 90 1 1 103 7 227 15 201 13 241 19 376 53 l151 39 47 -19
c27 -10 64 -21 84 -23 21 -3 53 -9 72 -15 50 -14 166 -12 230 5 404 107 753
692 799 1337 31 434 -97 828 -318 976 -72 48 -76 49 -406 148 -230 69 -273 78
-370 84 -70 5 -235 32 -453 74 -315 62 -348 66 -405 58 -58 -9 -100 -3 -635
99 -315 60 -588 109 -605 108 -18 0 -57 -7 -87 -16z m92 -61 c-6 -5 -21 -48
-31 -96 -19 -87 -20 -89 -92 -164 -130 -137 -129 -139 -11 24 41 57 55 87 68
145 19 84 28 99 58 99 14 0 17 -3 8 -8z m528 -127 c223 -42 428 -80 456 -86
l52 -10 -43 -95 c-24 -53 -45 -98 -48 -100 -4 -5 -915 220 -922 228 -3 3 20
82 40 136 3 9 14 12 32 8 16 -3 210 -40 433 -81z m917 -136 c92 -22 175 -43
183 -46 9 -3 -113 -69 -284 -154 -164 -82 -300 -148 -303 -146 -5 5 220 386
229 387 4 0 82 -18 175 -41z m821 -50 c32 -13 28 -14 -70 -14 -88 -1 -112 -4
-166 -27 -103 -43 -170 -88 -256 -173 -440 -433 -575 -1343 -266 -1783 27 -38
66 -84 87 -102 l38 -32 -35 18 c-19 9 -63 45 -97 80 -80 82 -151 222 -190 379
-26 104 -28 123 -28 330 1 200 3 231 27 346 108 500 390 897 701 984 63 18
207 15 255 -6z m182 -130 c0 -3 -17 -13 -37 -23 -62 -30 -194 -120 -261 -179
-396 -347 -572 -953 -448 -1540 21 -98 68 -254 101 -331 16 -38 -115 74 -154
132 -257 380 -265 934 -20 1425 132 264 361 493 567 565 l53 19 100 -31 c54
-17 99 -34 99 -37z m-2052 -150 c277 -81 506 -150 509 -152 3 -3 -16 -35 -41
-71 l-47 -65 -472 161 c-610 207 -587 199 -587 206 1 4 22 24 48 44 33 26 53
35 67 31 11 -3 246 -72 523 -154z m930 -26 c56 -25 101 -48 99 -50 -4 -3 -235
26 -255 33 -10 3 -7 12 10 33 13 17 28 30 33 31 6 0 56 -21 113 -47z m1421 6
c183 -63 317 -281 362 -590 17 -119 6 -397 -21 -524 -106 -500 -391 -886 -702
-951 -204 -43 -391 73 -497 308 -126 280 -122 699 10 1075 73 206 172 368 313
509 84 84 115 108 186 142 130 64 229 73 349 31z m-3732 -130 c97 -36 152 -78
183 -140 l19 -36 -74 -17 c-99 -23 -271 -110 -378 -190 -49 -36 -92 -66 -96
-66 -4 0 -21 37 -37 83 -23 65 -29 99 -29 164 0 74 3 85 30 125 36 51 117 96
191 104 27 4 50 8 52 9 6 5 81 -15 139 -36z m2213 -15 c58 -30 94 -53 80 -50
-14 2 -75 15 -137 27 l-112 23 20 28 c11 15 26 28 32 27 7 0 59 -25 117 -55z
m-287 -94 c-143 -300 -246 -682 -270 -1000 -7 -90 -7 -93 -16 -50 -11 59 0
317 19 449 32 215 94 396 188 541 42 64 118 161 123 157 1 -1 -19 -45 -44 -97z
m313 -187 c-2 -3 -289 77 -294 82 -2 1 4 21 13 43 l16 40 134 -81 c73 -45 132
-83 131 -84z m-1752 15 l190 -63 -67 -7 c-70 -7 -80 -11 -350 -151 -177 -92
-326 -109 -487 -58 -105 34 -105 33 -28 105 67 63 165 121 278 166 58 23 222
67 254 69 11 1 105 -27 210 -61z m971 -46 c98 -39 99 -40 71 -52 -71 -27 -104
-23 -311 40 l-200 60 170 -3 170 -4 100 -41z m597 -94 c81 -34 146 -63 145
-64 -4 -4 -306 51 -312 58 -8 8 4 68 13 68 4 0 73 -28 154 -62z m-442 6 c0
-20 -60 -497 -63 -500 -1 -1 -27 8 -57 20 l-55 23 2 109 c0 60 4 159 8 220 l7
112 71 15 c40 8 75 15 80 16 4 0 7 -6 7 -15z m-354 -60 c-9 -22 18 -62 45 -66
24 -4 -308 -148 -341 -148 -37 0 -60 19 -60 49 0 16 7 34 15 41 14 11 320 137
339 139 4 1 5 -6 2 -15z m-797 -94 c9 -30 9 -45 1 -61 -10 -17 -8 -25 8 -42
46 -51 66 -125 78 -287 5 -69 15 -114 35 -167 69 -172 9 -249 -206 -263 -113
-7 -209 2 -319 30 -113 29 -182 67 -266 146 -55 52 -85 73 -111 78 -69 12
-152 130 -179 253 -26 116 20 136 108 48 54 -54 67 -60 108 -49 18 5 22 16 27
69 5 56 3 70 -19 109 l-25 44 68 6 c332 28 549 66 629 110 43 23 50 20 63 -24z
m1687 -97 c-3 -3 -270 35 -293 42 -8 3 -9 14 -1 43 l10 39 143 -61 c80 -33
143 -61 141 -63z m-153 -127 c81 -33 146 -61 144 -62 -1 -1 -295 40 -323 46
-1 0 3 18 8 40 6 23 14 39 18 38 4 -2 73 -30 153 -62z m-607 -11 c3 -20 5 -38
3 -40 -3 -2 -56 11 -119 30 -112 32 -114 33 -70 37 25 3 75 5 112 6 l67 2 7
-35z m-488 -45 c83 -29 107 -42 114 -61 18 -47 6 -48 -100 -7 -57 22 -105 38
-107 36 -3 -2 -8 -37 -11 -77 -9 -90 -20 -75 -29 38 -3 47 -9 94 -12 104 -6
22 -13 23 145 -33z m315 -655 c17 -526 21 -593 36 -615 35 -50 124 -76 296
-88 97 -7 100 -8 109 -34 8 -22 6 -32 -10 -49 -18 -21 -24 -21 -150 -15 -217
11 -307 46 -346 134 -20 44 -23 91 -44 637 -13 325 -23 597 -24 606 0 12 11
15 58 14 l57 -1 18 -589z m228 500 c3 -3 15 -30 25 -62 29 -88 26 -239 -7
-318 l-24 -60 -72 -3 -73 -3 19 43 c46 108 54 277 17 377 l-16 44 62 -7 c34
-4 65 -9 69 -11z m354 -182 c78 -221 227 -438 379 -551 27 -20 45 -37 39 -39
-11 -4 -434 24 -438 29 -3 4 -14 638 -11 638 2 0 16 -35 31 -77z m-1811 -253
c27 -18 90 -57 139 -85 l89 -52 -34 -12 c-18 -7 -58 -14 -89 -18 -67 -7 -172
21 -230 61 -33 23 -40 36 -78 155 -22 71 -41 132 -41 135 0 4 44 -29 98 -72
53 -43 119 -94 146 -112z m656 -170 c16 -33 30 -63 30 -68 0 -9 -91 -42 -190
-69 -92 -24 -311 -24 -400 0 -74 20 -210 85 -255 122 l-30 24 55 -14 c286 -77
548 -64 700 35 25 16 48 29 52 29 4 1 21 -26 38 -59z m-915 -597 c114 -35 253
-129 361 -246 75 -81 199 -248 308 -415 47 -73 111 -167 142 -208 l55 -76 -42
-55 c-50 -64 -128 -136 -216 -200 -64 -46 -233 -146 -238 -141 -2 2 46 73 106
158 89 126 107 159 102 180 -19 85 -110 338 -153 427 -106 223 -280 438 -436
539 -109 70 -103 64 -69 58 17 -3 53 -13 80 -21z"/>
</g>
</svg>
